# Blender v2.80 (sub 39) OBJ File: 'Qped_Previz_02_WB.blend'
# www.blender.org
g Cube_Cube.002
v -0.083889 2.563068 0.751477
v -0.083889 4.358816 2.571982
v -0.083889 3.230065 0.209438
v -0.083889 4.644819 2.339560
v 0.083889 2.563068 0.751477
v 0.083889 4.358816 2.571982
v 0.083889 3.230065 0.209438
v 0.083889 4.644819 2.339560
v 0.000000 4.462634 1.993935
v 0.060720 4.469944 2.003549
v 0.000000 4.130627 2.246362
v 0.000000 4.383240 2.054299
v 0.060720 4.137937 2.255977
v 0.060720 4.390550 2.063913
v 0.112195 4.158754 2.283356
v 0.112195 4.411367 2.091293
v 0.146590 4.189909 2.324333
v 0.146590 4.442522 2.132270
v 0.158668 4.226659 2.372669
v 0.158668 4.479271 2.180605
v 0.146590 4.263408 2.421004
v 0.146590 4.516021 2.228941
v 0.112195 4.294563 2.461981
v 0.112195 4.547176 2.269917
v 0.060720 4.315380 2.489360
v 0.060720 4.567993 2.297297
v 0.000000 4.322690 2.498975
v 0.000000 4.575303 2.306912
v -0.060719 4.315380 2.489360
v -0.060719 4.567993 2.297297
v -0.112195 4.294563 2.461981
v -0.112195 4.547176 2.269917
v -0.146590 4.263408 2.421004
v -0.146590 4.516021 2.228941
v -0.158667 4.226659 2.372669
v -0.158667 4.479271 2.180605
v -0.146590 4.189909 2.324333
v -0.146590 4.442522 2.132270
v -0.112195 4.158754 2.283356
v -0.112195 4.411367 2.091293
v -0.060719 4.137937 2.255977
v -0.060719 4.390550 2.063913
v 0.112195 4.490761 2.030929
v 0.146590 4.521916 2.071906
v 0.158668 4.558666 2.120241
v 0.146590 4.595416 2.168576
v 0.112195 4.626571 2.209553
v 0.060720 4.647388 2.236933
v 0.000000 4.654697 2.246547
v -0.060719 4.647388 2.236933
v -0.112195 4.626571 2.209553
v -0.146590 4.595416 2.168576
v -0.158667 4.558666 2.120241
v -0.146590 4.521916 2.071906
v -0.112195 4.490761 2.030929
v -0.060719 4.469944 2.003549
v 0.000000 4.500828 2.044169
v -0.036570 4.505231 2.049960
v -0.067573 4.517768 2.066450
v -0.088288 4.536532 2.091130
v -0.095562 4.558666 2.120241
v -0.088288 4.580800 2.149353
v -0.067573 4.599564 2.174032
v -0.036570 4.612102 2.190522
v 0.000000 4.616504 2.196313
v 0.036570 4.612102 2.190522
v 0.067573 4.599564 2.174032
v 0.088288 4.580800 2.149353
v 0.095563 4.558666 2.120241
v 0.088288 4.536532 2.091130
v 0.067573 4.517768 2.066450
v 0.036570 4.505231 2.049960
v 0.000000 4.592876 1.974184
v -0.036570 4.597279 1.979975
v -0.067573 4.609817 1.996465
v -0.088288 4.628581 2.021145
v -0.095562 4.650714 2.050256
v -0.088288 4.672848 2.079368
v -0.067573 4.691612 2.104047
v -0.036570 4.704149 2.120538
v 0.000000 4.708552 2.126328
v 0.036570 4.704149 2.120538
v 0.067573 4.691612 2.104047
v 0.088288 4.672848 2.079368
v 0.095563 4.650714 2.050256
v 0.088288 4.628581 2.021145
v 0.067573 4.609817 1.996465
v 0.036570 4.597279 1.979975
v 0.000000 4.029155 2.323512
v 0.060720 4.036465 2.333127
v 0.112195 4.057282 2.360506
v 0.146590 4.088437 2.401483
v 0.158668 4.125187 2.449818
v 0.146590 4.161936 2.498154
v 0.112195 4.193091 2.539130
v 0.060720 4.213908 2.566510
v 0.000000 4.221218 2.576125
v -0.060719 4.213908 2.566510
v -0.112195 4.193091 2.539130
v -0.146590 4.161936 2.498154
v -0.158667 4.125187 2.449818
v -0.146590 4.088437 2.401483
v -0.112195 4.057282 2.360506
v -0.060719 4.036465 2.333127
v 0.000000 4.037372 2.334318
v 0.055525 4.044056 2.343110
v 0.102596 4.063092 2.368147
v 0.134048 4.091581 2.405618
v 0.145093 4.125187 2.449818
v 0.134048 4.158792 2.494018
v 0.102596 4.187282 2.531489
v 0.055525 4.206317 2.556526
v 0.000000 4.213002 2.565318
v -0.055524 4.206317 2.556526
v -0.102596 4.187282 2.531489
v -0.134048 4.158792 2.494018
v -0.145092 4.125187 2.449818
v -0.134048 4.091581 2.405618
v -0.102596 4.063092 2.368147
v -0.055524 4.044056 2.343110
v 0.000000 4.150323 2.248440
v 0.055524 4.157008 2.257232
v 0.102596 4.176044 2.282269
v 0.134048 4.204533 2.319740
v 0.145092 4.238138 2.363940
v 0.134048 4.271744 2.408140
v 0.102596 4.300233 2.445611
v 0.055524 4.319269 2.470648
v 0.000000 4.325954 2.479440
v -0.055524 4.319269 2.470648
v -0.102596 4.300233 2.445611
v -0.134048 4.271744 2.408140
v -0.145092 4.238138 2.363940
v -0.134048 4.204533 2.319740
v -0.102596 4.176044 2.282269
v -0.055524 4.157008 2.257232
vt 0.375000 0.000000
vt 0.625000 0.000000
vt 0.625000 0.250000
vt 0.375000 0.250000
vt 0.625000 0.500000
vt 0.375000 0.500000
vt 0.625000 0.750000
vt 0.375000 0.750000
vt 0.625000 1.000000
vt 0.375000 1.000000
vt 0.125000 0.500000
vt 0.125000 0.750000
vt 0.875000 0.500000
vt 0.875000 0.750000
vt 0.187500 1.000000
vt 0.250000 1.000000
vt 0.250000 1.000000
vt 0.187500 1.000000
vt 0.375000 1.000000
vt 0.437500 1.000000
vt 0.437500 1.000000
vt 0.375000 1.000000
vt 1.000000 0.500000
vt 1.000000 1.000000
vt 0.937500 1.000000
vt 0.937500 0.500000
vt 0.437500 1.000000
vt 0.375000 1.000000
vt 0.562500 1.000000
vt 0.625000 1.000000
vt 0.625000 1.000000
vt 0.562500 1.000000
vt 0.875000 1.000000
vt 0.875000 0.500000
vt 0.687500 1.000000
vt 0.687500 1.000000
vt 0.625000 1.000000
vt 0.750000 1.000000
vt 0.812500 1.000000
vt 0.812500 1.000000
vt 0.750000 1.000000
vt 0.812500 0.500000
vt 0.500000 1.000000
vt 0.500000 1.000000
vt 1.000000 1.000000
vt 0.937500 1.000000
vt 0.750000 0.500000
vt 0.312500 1.000000
vt 0.312500 1.000000
vt 0.000000 1.000000
vt 0.062500 1.000000
vt 0.062500 1.000000
vt 0.000000 1.000000
vt 0.687500 1.000000
vt 0.687500 0.500000
vt 0.125000 1.000000
vt 0.125000 1.000000
vt 0.062500 1.000000
vt 0.125000 1.000000
vt 0.187500 1.000000
vt 0.625000 0.500000
vt 0.875000 1.000000
vt 0.937500 1.000000
vt 0.875000 1.000000
vt 0.312500 1.000000
vt 0.562500 0.500000
vt 0.750000 1.000000
vt 0.500000 1.000000
vt 0.500000 0.500000
vt 0.562500 1.000000
vt 0.437500 0.500000
vt 0.000000 1.000000
vt 0.375000 0.500000
vt 0.312500 0.500000
vt 0.250000 1.000000
vt 0.250000 0.500000
vt 1.000000 1.000000
vt 0.187500 0.500000
vt 0.687500 1.000000
vt 0.625000 1.000000
vt 0.125000 0.500000
vt 0.812500 1.000000
vt 0.062500 0.500000
vt 0.000000 0.500000
vt 0.875000 0.500000
vt 0.937500 0.500000
vt 0.341844 0.471731
vt 0.250000 0.490000
vt 0.158156 0.471731
vt 0.080294 0.419706
vt 0.028269 0.341844
vt 0.010000 0.250000
vt 0.028269 0.158156
vt 0.080294 0.080294
vt 0.158156 0.028269
vt 0.250000 0.010000
vt 0.341844 0.028269
vt 0.419706 0.080294
vt 0.471731 0.158156
vt 0.490000 0.250000
vt 0.471731 0.341844
vt 0.419706 0.419706
vt 0.250000 1.000000
vt 0.187500 1.000000
vt 0.750000 1.000000
vt 0.312500 1.000000
vt 0.812500 1.000000
vt 0.375000 1.000000
vt 0.875000 1.000000
vt 0.437500 1.000000
vt 0.937500 1.000000
vt 0.500000 1.000000
vt 0.062500 1.000000
vt 0.000000 1.000000
vt 1.000000 1.000000
vt 0.562500 1.000000
vt 0.125000 1.000000
vt 0.687500 0.500000
vt 0.625000 0.500000
vt 0.625000 0.500000
vt 0.687500 0.500000
vt 0.750000 0.500000
vt 1.000000 0.500000
vt 0.500000 0.500000
vt 0.562500 0.500000
vt 0.312500 0.500000
vt 0.375000 0.500000
vt 0.125000 0.500000
vt 0.187500 0.500000
vt 0.000000 0.500000
vt 0.062500 0.500000
vt 0.812500 0.500000
vt 0.437500 0.500000
vt 0.250000 0.500000
vt 0.375000 0.500000
vt 0.312500 0.500000
vt 0.312500 0.500000
vt 0.375000 0.500000
vt 0.125000 0.500000
vt 0.187500 0.500000
vt 0.562500 0.500000
vt 0.062500 0.500000
vt 0.500000 0.500000
vt 0.937500 0.500000
vt 1.000000 0.500000
vt 0.000000 0.500000
vt 0.437500 0.500000
vt 0.875000 0.500000
vt 0.812500 0.500000
vt 0.750000 0.500000
vt 0.250000 0.500000
vt 0.750000 0.490000
vt 0.841844 0.471731
vt 0.919706 0.419706
vt 0.971731 0.341844
vt 0.990000 0.250000
vt 0.971731 0.158156
vt 0.919706 0.080294
vt 0.841844 0.028269
vt 0.750000 0.010000
vt 0.658156 0.028269
vt 0.580294 0.080294
vt 0.528269 0.158156
vt 0.510000 0.250000
vt 0.528269 0.341844
vt 0.580294 0.419706
vt 0.658156 0.471731
vt 0.750000 0.500000
vt 0.812500 0.500000
vt 0.250000 0.500000
vt 0.687500 0.500000
vt 0.187500 0.500000
vt 0.625000 0.500000
vt 0.125000 0.500000
vt 0.562500 0.500000
vt 0.062500 0.500000
vt 0.500000 0.500000
vt 0.937500 0.500000
vt 1.000000 0.500000
vt 0.000000 0.500000
vt 0.437500 0.500000
vt 0.875000 0.500000
vn -1.0000 0.0000 0.0000
vn 0.0000 0.8330 -0.5533
vn 1.0000 0.0000 0.0000
vn 0.0000 -0.7119 0.7022
vn 0.0000 -0.6307 -0.7761
vn 0.0000 0.6307 0.7761
vn -0.0000 0.7960 -0.6052
vn -0.5556 0.5032 0.6619
vn 0.1951 -0.5936 -0.7807
vn 0.5556 0.5032 0.6619
vn 0.5556 -0.5032 -0.6619
vn 0.9808 -0.1181 -0.1553
vn 0.8315 -0.3363 -0.4423
vn -0.1951 -0.5936 -0.7807
vn 0.9808 0.1181 0.1553
vn -0.8315 -0.3363 -0.4423
vn 0.8315 0.3363 0.4423
vn -0.8315 0.3363 0.4423
vn 0.1951 0.5936 0.7807
vn -0.1951 0.5936 0.7807
vn -0.5556 -0.5032 -0.6619
vn -0.0000 0.7961 -0.6052
vn -0.9808 0.1181 0.1553
vn -0.9808 -0.1181 -0.1553
vn -0.0000 -0.7960 0.6052
vn -0.0000 -0.7961 0.6052
vn 0.0000 -0.7960 0.6053
s off
f 1/1/1 2/2/1 4/3/1 3/4/1
f 3/4/2 4/3/2 8/5/2 7/6/2
f 7/6/3 8/5/3 6/7/3 5/8/3
f 5/8/4 6/7/4 2/9/4 1/10/4
f 3/11/5 7/6/5 5/8/5 1/12/5
f 8/5/6 4/13/6 2/14/6 6/7/6
f 54/15/7 53/16/7 61/17/7 60/18/7
f 32/19/8 30/20/8 50/21/8 51/22/8
f 11/23/9 12/24/9 14/25/9 13/26/9
f 51/22/7 50/21/7 64/27/7 63/28/7
f 26/29/10 24/30/10 47/31/10 48/32/10
f 13/26/11 14/25/11 16/33/11 15/34/11
f 47/31/7 46/35/7 68/36/7 67/37/7
f 20/38/12 18/39/12 44/40/12 45/41/12
f 15/34/13 16/33/13 18/39/13 17/42/13
f 50/21/7 49/43/7 65/44/7 64/27/7
f 14/25/9 12/24/9 9/45/9 10/46/9
f 17/42/12 18/39/12 20/38/12 19/47/12
f 53/16/7 52/48/7 62/49/7 61/17/7
f 12/50/14 42/51/14 56/52/14 9/53/14
f 19/47/15 20/38/15 22/54/15 21/55/15
f 56/52/7 55/56/7 59/57/7 58/58/7
f 40/59/16 38/60/16 54/15/16 55/56/16
f 21/55/17 22/54/17 24/30/17 23/61/17
f 43/62/7 10/46/7 72/63/7 71/64/7
f 34/65/18 32/19/18 51/22/18 52/48/18
f 23/61/10 24/30/10 26/29/10 25/66/10
f 46/35/7 45/41/7 69/67/7 68/36/7
f 28/68/19 26/29/19 48/32/19 49/43/19
f 25/66/19 26/29/19 28/68/19 27/69/19
f 49/43/7 48/32/7 66/70/7 65/44/7
f 22/54/15 20/38/15 45/41/15 46/35/15
f 27/69/20 28/68/20 30/20/20 29/71/20
f 9/53/7 56/52/7 58/58/7 57/72/7
f 16/33/11 14/25/11 10/46/11 43/62/11
f 29/71/8 30/20/8 32/19/8 31/73/8
f 52/48/7 51/22/7 63/28/7 62/49/7
f 42/51/21 40/59/21 55/56/21 56/52/21
f 31/73/18 32/19/18 34/65/18 33/74/18
f 55/56/22 54/15/22 60/18/22 59/57/22
f 36/75/23 34/65/23 52/48/23 53/16/23
f 33/74/23 34/65/23 36/75/23 35/76/23
f 10/46/7 9/45/7 57/77/7 72/63/7
f 30/20/20 28/68/20 49/43/20 50/21/20
f 35/76/24 36/75/24 38/60/24 37/78/24
f 67/37/17 68/36/17 84/79/17 83/80/17
f 24/30/17 22/54/17 46/35/17 47/31/17
f 37/78/16 38/60/16 40/59/16 39/81/16
f 18/39/13 16/33/13 43/62/13 44/40/13
f 45/41/7 44/40/7 70/82/7 69/67/7
f 39/81/21 40/59/21 42/51/21 41/83/21
f 44/40/7 43/62/7 71/64/7 70/82/7
f 38/60/24 36/75/24 53/16/24 54/15/24
f 41/83/14 42/51/14 12/50/14 11/84/14
f 13/26/11 15/34/11 91/85/11 90/86/11
f 48/32/7 47/31/7 67/37/7 66/70/7
f 88/87/7 73/88/7 74/89/7 75/90/7 76/91/7 77/92/7 78/93/7 79/94/7 80/95/7 81/96/7 82/97/7 83/98/7 84/99/7 85/100/7 86/101/7 87/102/7
f 60/18/24 61/17/24 77/103/24 76/104/24
f 68/36/15 69/67/15 85/105/15 84/79/15
f 61/17/23 62/49/23 78/106/23 77/103/23
f 69/67/12 70/82/12 86/107/12 85/105/12
f 62/49/18 63/28/18 79/108/18 78/106/18
f 70/82/13 71/64/13 87/109/13 86/107/13
f 63/28/8 64/27/8 80/110/8 79/108/8
f 71/64/11 72/63/11 88/111/11 87/109/11
f 64/27/20 65/44/20 81/112/20 80/110/20
f 57/72/14 58/58/14 74/113/14 73/114/14
f 72/63/9 57/77/9 73/115/9 88/111/9
f 65/44/19 66/70/19 82/116/19 81/112/19
f 58/58/21 59/57/21 75/117/21 74/113/21
f 66/70/10 67/37/10 83/80/10 82/116/10
f 59/57/16 60/18/16 76/104/16 75/117/16
f 94/118/25 95/119/25 111/120/25 110/121/25
f 19/47/15 21/55/15 94/118/15 93/122/15
f 11/23/9 13/26/9 90/86/9 89/123/9
f 25/66/19 27/69/19 97/124/19 96/125/19
f 31/73/18 33/74/18 100/126/18 99/127/18
f 37/78/16 39/81/16 103/128/16 102/129/16
f 41/83/14 11/84/14 89/130/14 104/131/14
f 17/42/12 19/47/12 93/122/12 92/132/12
f 23/61/10 25/66/10 96/125/10 95/119/10
f 29/71/8 31/73/8 99/127/8 98/133/8
f 35/76/24 37/78/24 102/129/24 101/134/24
f 15/34/13 17/42/13 92/132/13 91/85/13
f 21/55/17 23/61/17 95/119/17 94/118/17
f 27/69/20 29/71/20 98/133/20 97/124/20
f 33/74/23 35/76/23 101/134/23 100/126/23
f 39/81/21 41/83/21 104/131/21 103/128/21
f 115/135/13 116/136/13 132/137/13 131/138/13
f 102/129/26 103/128/26 119/139/26 118/140/26
f 95/119/25 96/125/25 112/141/25 111/120/25
f 103/128/26 104/131/26 120/142/26 119/139/26
f 96/125/25 97/124/25 113/143/25 112/141/25
f 89/123/25 90/86/25 106/144/25 105/145/25
f 104/131/27 89/130/27 105/146/27 120/142/27
f 97/124/25 98/133/25 114/147/25 113/143/25
f 90/86/26 91/85/26 107/148/26 106/144/26
f 98/133/25 99/127/25 115/135/25 114/147/25
f 91/85/26 92/132/26 108/149/26 107/148/26
f 99/127/25 100/126/25 116/136/25 115/135/25
f 92/132/25 93/122/25 109/150/25 108/149/25
f 100/126/26 101/134/26 117/151/26 116/136/26
f 93/122/26 94/118/26 110/121/26 109/150/26
f 101/134/25 102/129/25 118/140/25 117/151/25
f 121/152/25 122/153/25 123/154/25 124/155/25 125/156/25 126/157/25 127/158/25 128/159/25 129/160/25 130/161/25 131/162/25 132/163/25 133/164/25 134/165/25 135/166/25 136/167/25
f 108/149/23 109/150/23 125/168/23 124/169/23
f 116/136/12 117/151/12 133/170/12 132/137/12
f 109/150/24 110/121/24 126/171/24 125/168/24
f 117/151/15 118/140/15 134/172/15 133/170/15
f 110/121/16 111/120/16 127/173/16 126/171/16
f 118/140/17 119/139/17 135/174/17 134/172/17
f 111/120/21 112/141/21 128/175/21 127/173/21
f 119/139/10 120/142/10 136/176/10 135/174/10
f 112/141/14 113/143/14 129/177/14 128/175/14
f 105/145/20 106/144/20 122/178/20 121/179/20
f 120/142/19 105/146/19 121/180/19 136/176/19
f 113/143/9 114/147/9 130/181/9 129/177/9
f 106/144/8 107/148/8 123/182/8 122/178/8
f 114/147/11 115/135/11 131/138/11 130/181/11
f 107/148/18 108/149/18 124/169/18 123/182/18
g Cube.003_Cube.007
v -0.184466 2.515143 0.451872
v -0.130172 2.896620 1.276455
v -0.184466 3.059800 0.199897
v -0.143154 3.441277 1.024480
v 0.184466 2.515143 0.451872
v 0.130172 2.896620 1.276455
v 0.184466 3.059800 0.199897
v 0.143154 3.441277 1.024480
v -0.184466 2.644163 0.392183
v -0.123289 3.025640 1.216766
v 0.184466 2.644163 0.392183
v 0.123289 3.025640 1.216766
v 0.098558 3.127296 1.436502
v 0.108173 2.998276 1.496191
v -0.108173 2.998276 1.496191
v -0.098558 3.127296 1.436502
v 0.098558 3.166739 1.521761
v 0.108173 3.037719 1.581449
v -0.108173 3.037719 1.581449
v -0.098558 3.166739 1.521761
v -0.098558 3.313280 1.350461
v 0.098558 3.313280 1.350461
v -0.098558 3.352723 1.435719
v 0.098558 3.352723 1.435719
vt 0.375000 0.059221
vt 0.625000 0.059221
vt 0.625000 0.250000
vt 0.375000 0.250000
vt 0.625000 0.500000
vt 0.375000 0.500000
vt 0.375000 0.690779
vt 0.625000 0.690779
vt 0.625000 0.750000
vt 0.375000 0.750000
vt 0.625000 1.000000
vt 0.375000 1.000000
vt 0.125000 0.690779
vt 0.125000 0.750000
vt 0.625000 0.000000
vt 0.625000 0.000000
vt 0.625000 0.059221
vt 0.875000 0.500000
vt 0.875000 0.690779
vt 0.125000 0.500000
vt 0.375000 0.000000
vt 0.625000 0.000000
vt 0.625000 0.059221
vt 0.625000 0.750000
vt 0.625000 1.000000
vt 0.875000 0.690779
vt 0.625000 0.690779
vt 0.625000 0.690779
vt 0.875000 0.690779
vt 0.875000 0.750000
vt 0.625000 0.750000
vt 0.625000 0.059221
vt 0.625000 0.059221
vt 0.625000 1.000000
vt 0.625000 0.690779
vt 0.875000 0.690779
vt 0.875000 0.690779
vt 0.625000 0.690779
vn -0.9982 0.0040 0.0602
vn 0.0000 0.9076 -0.4199
vn 0.9977 0.0485 0.0474
vn 0.0000 -0.9076 0.4199
vn 0.0000 -0.4199 -0.9076
vn -0.9937 0.0926 0.0628
vn 0.0000 0.4199 0.9076
vn 0.9982 0.0040 0.0602
vn -0.9977 0.0485 0.0474
vn -0.9977 0.0612 -0.0283
vn 0.9937 0.0926 0.0628
vn 0.9977 0.0612 -0.0283
vn -1.0000 0.0000 0.0000
vn 1.0000 0.0000 0.0000
s off
f 145/183/28 146/184/28 140/185/28 139/186/28
f 139/186/29 140/185/29 144/187/29 143/188/29
f 147/189/30 148/190/30 142/191/30 141/192/30
f 141/192/31 142/191/31 138/193/31 137/194/31
f 145/195/32 147/189/32 141/192/32 137/196/32
f 146/184/33 138/197/33 151/198/33 152/199/33
f 144/187/34 140/200/34 146/201/34 148/190/34
f 139/202/32 143/188/32 147/189/32 145/195/32
f 143/188/35 144/187/35 148/190/35 147/189/35
f 137/203/36 138/197/36 146/184/36 145/183/36
f 152/199/37 151/198/37 155/204/37 156/205/37
f 138/193/31 142/191/31 150/206/31 151/207/31
f 148/190/29 146/201/29 152/208/29 149/209/29
f 142/191/38 148/190/38 149/209/38 150/206/38
f 153/210/34 156/211/34 155/212/34 154/213/34
f 150/206/39 149/209/39 153/210/39 154/213/39
f 152/199/40 156/205/40 159/214/40 157/215/40
f 151/207/31 150/206/31 154/213/31 155/216/31
f 158/217/29 157/218/29 159/219/29 160/220/29
f 156/211/34 153/210/34 160/220/34 159/219/34
f 149/209/32 152/208/32 157/218/32 158/217/32
f 153/210/41 149/209/41 158/217/41 160/220/41
g Cube.004_Cube.008
v -0.092766 4.299348 1.716529
v -0.133977 3.914233 2.020132
v -0.092766 4.499885 1.970907
v -0.147067 4.114770 2.274510
v 0.092766 4.299348 1.716529
v 0.133977 3.914233 2.020132
v 0.092766 4.499885 1.970907
v 0.147067 4.114770 2.274510
v -0.092766 4.346852 1.776787
v -0.127042 3.961737 2.080389
v 0.092766 4.346852 1.776787
v 0.127042 3.961737 2.080389
v 0.112212 3.859111 2.161294
v 0.123085 3.811607 2.101036
v -0.123085 3.811607 2.101036
v -0.112212 3.859111 2.161294
v 0.113344 3.819291 2.192685
v 0.124395 3.771788 2.132427
v -0.124395 3.771788 2.132427
v -0.113344 3.819291 2.192685
v -0.112574 3.927588 2.248157
v 0.112574 3.927588 2.248157
v -0.113350 3.887769 2.279548
v 0.113350 3.887769 2.279548
vt 0.375000 0.059221
vt 0.625000 0.059221
vt 0.625000 0.250000
vt 0.375000 0.250000
vt 0.625000 0.500000
vt 0.375000 0.500000
vt 0.375000 0.690779
vt 0.625000 0.690779
vt 0.625000 0.750000
vt 0.375000 0.750000
vt 0.625000 1.000000
vt 0.375000 1.000000
vt 0.125000 0.690779
vt 0.125000 0.750000
vt 0.625000 0.000000
vt 0.625000 0.000000
vt 0.625000 0.059221
vt 0.875000 0.500000
vt 0.875000 0.690779
vt 0.125000 0.500000
vt 0.375000 0.000000
vt 0.625000 0.000000
vt 0.625000 0.059221
vt 0.625000 0.750000
vt 0.625000 1.000000
vt 0.875000 0.690779
vt 0.625000 0.690779
vt 0.625000 0.690779
vt 0.875000 0.690779
vt 0.875000 0.750000
vt 0.625000 0.750000
vt 0.625000 0.059221
vt 0.625000 0.059221
vt 0.625000 1.000000
vt 0.625000 0.690779
vt 0.875000 0.690779
vt 0.875000 0.690779
vt 0.625000 0.690779
vn -0.9951 0.0456 -0.0873
vn 0.0000 0.6191 0.7853
vn 0.9960 0.0881 -0.0121
vn 0.0000 -0.6191 -0.7853
vn 0.0000 0.7853 -0.6191
vn -0.9886 -0.0054 0.1503
vn 0.0000 -0.7853 0.6191
vn 0.9951 0.0456 -0.0873
vn -0.9960 0.0881 -0.0121
vn -0.9897 0.1062 0.0963
vn 0.9886 -0.0054 0.1503
vn 0.9897 0.1062 0.0963
vn -0.9998 0.0137 -0.0130
vn 0.9998 0.0137 -0.0130
s off
f 169/221/42 170/222/42 164/223/42 163/224/42
f 163/224/43 164/223/43 168/225/43 167/226/43
f 171/227/44 172/228/44 166/229/44 165/230/44
f 165/230/45 166/229/45 162/231/45 161/232/45
f 169/233/46 171/227/46 165/230/46 161/234/46
f 170/222/47 162/235/47 175/236/47 176/237/47
f 168/225/48 164/238/48 170/239/48 172/228/48
f 163/240/46 167/226/46 171/227/46 169/233/46
f 167/226/49 168/225/49 172/228/49 171/227/49
f 161/241/50 162/235/50 170/222/50 169/221/50
f 176/237/51 175/236/51 179/242/51 180/243/51
f 162/231/45 166/229/45 174/244/45 175/245/45
f 172/228/43 170/239/43 176/246/43 173/247/43
f 166/229/52 172/228/52 173/247/52 174/244/52
f 177/248/48 180/249/48 179/250/48 178/251/48
f 174/244/53 173/247/53 177/248/53 178/251/53
f 176/237/54 180/243/54 183/252/54 181/253/54
f 175/245/45 174/244/45 178/251/45 179/254/45
f 182/255/43 181/256/43 183/257/43 184/258/43
f 180/249/48 177/248/48 184/258/48 183/257/48
f 173/247/46 176/246/46 181/256/46 182/255/46
f 177/248/55 173/247/55 182/255/55 184/258/55
